<svg width="750" height="250" viewBox="0 0 750 250" fill="none" xmlns="http://www.w3.org/2000/svg">
<rect width="750" height="250" fill="white"/>
<rect x="2.5" y="2.5" width="745" height="245" stroke="black" stroke-width="5"/>
<path d="M217.87 177.176V187H216.486V177.176H213.046V175.984H221.358L221.214 177.176H217.87ZM224.952 175.056V179.728C225.283 179.285 225.688 178.955 226.168 178.736C226.653 178.512 227.144 178.4 227.64 178.4C228.461 178.4 229.061 178.619 229.44 179.056C229.819 179.493 230.008 180.101 230.008 180.88V187H228.664V180.912C228.664 180.405 228.547 180.037 228.312 179.808C228.077 179.573 227.709 179.456 227.208 179.456C226.888 179.456 226.584 179.528 226.296 179.672C226.008 179.816 225.749 179.995 225.52 180.208C225.291 180.421 225.101 180.64 224.952 180.864V187H223.608V175.2L224.952 175.056ZM234.258 183.264C234.284 183.915 234.41 184.448 234.634 184.864C234.858 185.275 235.154 185.579 235.522 185.776C235.89 185.968 236.29 186.064 236.722 186.064C237.154 186.064 237.543 186 237.89 185.872C238.242 185.744 238.602 185.555 238.97 185.304L239.602 186.192C239.207 186.501 238.756 186.744 238.25 186.92C237.748 187.096 237.234 187.184 236.706 187.184C235.89 187.184 235.194 187 234.618 186.632C234.042 186.264 233.602 185.752 233.298 185.096C232.999 184.435 232.85 183.669 232.85 182.8C232.85 181.947 233.002 181.189 233.306 180.528C233.61 179.867 234.036 179.347 234.586 178.968C235.135 178.589 235.783 178.4 236.53 178.4C237.239 178.4 237.85 178.568 238.362 178.904C238.874 179.235 239.266 179.709 239.538 180.328C239.815 180.941 239.954 181.675 239.954 182.528C239.954 182.672 239.951 182.808 239.946 182.936C239.94 183.059 239.932 183.168 239.922 183.264H234.258ZM236.546 179.504C235.922 179.504 235.399 179.725 234.978 180.168C234.562 180.611 234.324 181.296 234.266 182.224H238.658C238.642 181.323 238.444 180.645 238.066 180.192C237.687 179.733 237.18 179.504 236.546 179.504ZM255.309 185.464C255.731 185.464 256.069 185.397 256.325 185.264C256.587 185.131 256.717 184.931 256.717 184.664C256.717 184.483 256.667 184.331 256.565 184.208C256.464 184.085 256.269 183.968 255.981 183.856C255.693 183.744 255.267 183.611 254.701 183.456C254.184 183.317 253.725 183.141 253.325 182.928C252.931 182.715 252.621 182.44 252.397 182.104C252.179 181.768 252.069 181.349 252.069 180.848C252.069 180.341 252.211 179.891 252.493 179.496C252.776 179.101 253.192 178.792 253.741 178.568C254.291 178.339 254.963 178.224 255.757 178.224C256.515 178.224 257.173 178.323 257.733 178.52C258.299 178.712 258.787 178.957 259.197 179.256L258.189 180.744C257.837 180.525 257.459 180.352 257.053 180.224C256.648 180.091 256.24 180.024 255.829 180.024C255.419 180.024 255.112 180.08 254.909 180.192C254.712 180.299 254.613 180.461 254.613 180.68C254.613 180.824 254.664 180.949 254.765 181.056C254.872 181.157 255.069 181.264 255.357 181.376C255.645 181.483 256.067 181.616 256.621 181.776C257.171 181.931 257.648 182.109 258.053 182.312C258.464 182.515 258.781 182.787 259.005 183.128C259.229 183.464 259.341 183.909 259.341 184.464C259.341 185.083 259.157 185.603 258.789 186.024C258.421 186.44 257.933 186.752 257.325 186.96C256.717 187.168 256.051 187.272 255.325 187.272C254.504 187.272 253.779 187.155 253.149 186.92C252.52 186.685 251.984 186.376 251.541 185.992L252.813 184.568C253.144 184.824 253.517 185.037 253.933 185.208C254.355 185.379 254.813 185.464 255.309 185.464ZM266.687 178.504V185.272H268.847V187H261.751V185.272H264.159V180.232H261.831V178.504H266.687ZM265.159 174.056C265.596 174.056 265.954 174.192 266.231 174.464C266.508 174.736 266.647 175.075 266.647 175.48C266.647 175.885 266.508 176.227 266.231 176.504C265.954 176.776 265.596 176.912 265.159 176.912C264.716 176.912 264.354 176.776 264.071 176.504C263.794 176.227 263.655 175.885 263.655 175.48C263.655 175.075 263.794 174.736 264.071 174.464C264.354 174.192 264.716 174.056 265.159 174.056ZM277.369 178.224C277.774 178.224 278.107 178.309 278.369 178.48C278.63 178.651 278.825 178.92 278.953 179.288C279.081 179.651 279.145 180.125 279.145 180.712V187H276.977V181C276.977 180.701 276.947 180.491 276.889 180.368C276.835 180.245 276.723 180.184 276.553 180.184C276.419 180.184 276.281 180.224 276.137 180.304C275.998 180.379 275.843 180.523 275.673 180.736V187H273.897V181C273.897 180.701 273.867 180.491 273.809 180.368C273.755 180.245 273.643 180.184 273.473 180.184C273.339 180.184 273.201 180.224 273.057 180.304C272.918 180.379 272.763 180.523 272.593 180.736V187H270.393V178.504H272.249L272.417 179.328C272.683 178.965 272.953 178.691 273.225 178.504C273.497 178.317 273.819 178.224 274.193 178.224C274.513 178.224 274.785 178.307 275.009 178.472C275.238 178.632 275.401 178.885 275.497 179.232C275.753 178.933 276.035 178.691 276.345 178.504C276.654 178.317 276.995 178.224 277.369 178.224ZM285.387 178.224C286.128 178.224 286.725 178.408 287.179 178.776C287.632 179.144 287.963 179.664 288.171 180.336C288.384 181.008 288.491 181.805 288.491 182.728C288.491 183.603 288.363 184.384 288.107 185.072C287.851 185.755 287.48 186.293 286.995 186.688C286.509 187.077 285.92 187.272 285.227 187.272C284.4 187.272 283.728 186.976 283.211 186.384V190.28L280.683 190.544V178.504H282.923L283.035 179.456C283.381 179.013 283.76 178.699 284.171 178.512C284.581 178.32 284.987 178.224 285.387 178.224ZM284.603 180.088C284.309 180.088 284.051 180.176 283.827 180.352C283.603 180.528 283.397 180.768 283.211 181.072V184.656C283.387 184.917 283.571 185.109 283.763 185.232C283.96 185.355 284.192 185.416 284.459 185.416C284.907 185.416 285.256 185.213 285.507 184.808C285.757 184.397 285.883 183.715 285.883 182.76C285.883 182.056 285.832 181.512 285.731 181.128C285.629 180.739 285.483 180.469 285.291 180.32C285.099 180.165 284.869 180.088 284.603 180.088ZM294.708 175.128V184.328C294.708 184.669 294.804 184.915 294.996 185.064C295.194 185.208 295.463 185.28 295.804 185.28C296.023 185.28 296.234 185.256 296.436 185.208C296.639 185.155 296.828 185.093 297.004 185.024L297.612 186.712C297.324 186.861 296.978 186.992 296.572 187.104C296.167 187.216 295.695 187.272 295.156 187.272C294.132 187.272 293.38 186.979 292.9 186.392C292.42 185.8 292.18 185.008 292.18 184.016V176.856H289.676V175.128H294.708ZM302.062 183.488C302.121 183.952 302.241 184.328 302.422 184.616C302.609 184.899 302.846 185.107 303.134 185.24C303.422 185.368 303.745 185.432 304.102 185.432C304.491 185.432 304.867 185.368 305.23 185.24C305.593 185.112 305.942 184.941 306.278 184.728L307.294 186.104C306.894 186.445 306.409 186.725 305.838 186.944C305.273 187.163 304.627 187.272 303.902 187.272C302.931 187.272 302.118 187.08 301.462 186.696C300.806 186.307 300.313 185.773 299.982 185.096C299.651 184.419 299.486 183.64 299.486 182.76C299.486 181.923 299.646 181.163 299.966 180.48C300.286 179.792 300.753 179.245 301.366 178.84C301.985 178.429 302.739 178.224 303.63 178.224C304.441 178.224 305.142 178.397 305.734 178.744C306.331 179.091 306.793 179.589 307.118 180.24C307.449 180.891 307.614 181.672 307.614 182.584C307.614 182.728 307.609 182.883 307.598 183.048C307.593 183.213 307.582 183.36 307.566 183.488H302.062ZM303.63 179.92C303.177 179.92 302.811 180.083 302.534 180.408C302.257 180.733 302.089 181.253 302.03 181.968H305.15C305.145 181.349 305.025 180.853 304.79 180.48C304.555 180.107 304.169 179.92 303.63 179.92ZM322.41 186.072C323.055 186.072 323.564 185.952 323.938 185.712C324.316 185.467 324.506 185.141 324.506 184.736C324.506 184.48 324.458 184.259 324.362 184.072C324.271 183.885 324.082 183.717 323.794 183.568C323.506 183.419 323.063 183.269 322.466 183.12C321.884 182.976 321.378 182.811 320.946 182.624C320.519 182.432 320.186 182.184 319.946 181.88C319.711 181.576 319.594 181.181 319.594 180.696C319.594 180.221 319.727 179.813 319.993 179.472C320.266 179.125 320.642 178.861 321.122 178.68C321.602 178.493 322.159 178.4 322.794 178.4C323.471 178.4 324.06 178.491 324.562 178.672C325.068 178.848 325.498 179.067 325.85 179.328L325.258 180.24C324.938 180.021 324.586 179.843 324.202 179.704C323.818 179.56 323.354 179.488 322.81 179.488C322.148 179.488 321.679 179.592 321.402 179.8C321.124 180.003 320.986 180.267 320.986 180.592C320.986 180.837 321.052 181.043 321.186 181.208C321.324 181.368 321.556 181.515 321.882 181.648C322.207 181.776 322.655 181.917 323.226 182.072C323.775 182.216 324.252 182.389 324.658 182.592C325.068 182.795 325.388 183.061 325.618 183.392C325.847 183.723 325.962 184.149 325.962 184.672C325.962 185.269 325.791 185.755 325.45 186.128C325.108 186.496 324.666 186.765 324.122 186.936C323.583 187.101 323.012 187.184 322.41 187.184C321.647 187.184 320.996 187.075 320.458 186.856C319.924 186.632 319.476 186.363 319.113 186.048L319.882 185.16C320.212 185.432 320.591 185.653 321.018 185.824C321.45 185.989 321.914 186.072 322.41 186.072ZM332.419 175.184V184.92C332.419 185.336 332.547 185.632 332.803 185.808C333.065 185.979 333.401 186.064 333.811 186.064C334.067 186.064 334.31 186.037 334.539 185.984C334.769 185.931 334.998 185.859 335.227 185.768L335.587 186.752C335.358 186.864 335.073 186.963 334.731 187.048C334.395 187.139 334.014 187.184 333.587 187.184C332.841 187.184 332.235 186.979 331.771 186.568C331.307 186.152 331.075 185.579 331.075 184.848V176.248H328.491V175.184H332.419ZM344.765 185.16C344.765 185.496 344.821 185.741 344.933 185.896C345.045 186.051 345.218 186.165 345.453 186.24L345.125 187.184C344.762 187.136 344.445 187.021 344.173 186.84C343.901 186.653 343.704 186.373 343.581 186C343.277 186.389 342.898 186.685 342.445 186.888C341.992 187.085 341.49 187.184 340.941 187.184C340.098 187.184 339.434 186.947 338.949 186.472C338.464 185.997 338.221 185.368 338.221 184.584C338.221 183.715 338.56 183.048 339.237 182.584C339.914 182.12 340.893 181.888 342.173 181.888H343.413V181.184C343.413 180.576 343.234 180.147 342.877 179.896C342.525 179.64 342.034 179.512 341.405 179.512C341.128 179.512 340.802 179.547 340.429 179.616C340.056 179.68 339.65 179.789 339.213 179.944L338.861 178.928C339.378 178.736 339.864 178.6 340.317 178.52C340.77 178.44 341.202 178.4 341.613 178.4C342.664 178.4 343.45 178.645 343.973 179.136C344.501 179.621 344.765 180.283 344.765 181.12V185.16ZM341.285 186.16C341.701 186.16 342.098 186.056 342.477 185.848C342.856 185.635 343.168 185.341 343.413 184.968V182.8H342.197C341.269 182.8 340.613 182.96 340.229 183.28C339.85 183.6 339.661 184.029 339.661 184.568C339.661 185.091 339.794 185.488 340.061 185.76C340.333 186.027 340.741 186.16 341.285 186.16ZM351.191 186.072C351.836 186.072 352.345 185.952 352.719 185.712C353.097 185.467 353.287 185.141 353.287 184.736C353.287 184.48 353.239 184.259 353.143 184.072C353.052 183.885 352.863 183.717 352.575 183.568C352.287 183.419 351.844 183.269 351.247 183.12C350.665 182.976 350.159 182.811 349.727 182.624C349.3 182.432 348.967 182.184 348.727 181.88C348.492 181.576 348.375 181.181 348.375 180.696C348.375 180.221 348.508 179.813 348.775 179.472C349.047 179.125 349.423 178.861 349.903 178.68C350.383 178.493 350.94 178.4 351.575 178.4C352.252 178.4 352.841 178.491 353.343 178.672C353.849 178.848 354.279 179.067 354.631 179.328L354.039 180.24C353.719 180.021 353.367 179.843 352.983 179.704C352.599 179.56 352.135 179.488 351.591 179.488C350.929 179.488 350.46 179.592 350.183 179.8C349.905 180.003 349.767 180.267 349.767 180.592C349.767 180.837 349.833 181.043 349.967 181.208C350.105 181.368 350.337 181.515 350.663 181.648C350.988 181.776 351.436 181.917 352.007 182.072C352.556 182.216 353.033 182.389 353.439 182.592C353.849 182.795 354.169 183.061 354.399 183.392C354.628 183.723 354.743 184.149 354.743 184.672C354.743 185.269 354.572 185.755 354.231 186.128C353.889 186.496 353.447 186.765 352.903 186.936C352.364 187.101 351.793 187.184 351.191 187.184C350.428 187.184 349.777 187.075 349.239 186.856C348.705 186.632 348.257 186.363 347.895 186.048L348.663 185.16C348.993 185.432 349.372 185.653 349.799 185.824C350.231 185.989 350.695 186.072 351.191 186.072ZM359.265 175.056V179.728C359.595 179.285 360.001 178.955 360.481 178.736C360.966 178.512 361.457 178.4 361.953 178.4C362.774 178.4 363.374 178.619 363.753 179.056C364.131 179.493 364.321 180.101 364.321 180.88V187H362.977V180.912C362.977 180.405 362.859 180.037 362.625 179.808C362.39 179.573 362.022 179.456 361.521 179.456C361.201 179.456 360.897 179.528 360.609 179.672C360.321 179.816 360.062 179.995 359.833 180.208C359.603 180.421 359.414 180.64 359.265 180.864V187H357.921V175.2L359.265 175.056ZM380.916 186.024C381.337 186.024 381.729 185.955 382.092 185.816C382.46 185.677 382.799 185.501 383.108 185.288L383.764 186.168C383.396 186.483 382.953 186.731 382.436 186.912C381.919 187.093 381.412 187.184 380.916 187.184C380.079 187.184 379.364 187.005 378.772 186.648C378.185 186.285 377.737 185.779 377.428 185.128C377.119 184.472 376.964 183.704 376.964 182.824C376.964 181.981 377.119 181.227 377.428 180.56C377.743 179.888 378.193 179.36 378.78 178.976C379.372 178.592 380.089 178.4 380.932 178.4C381.471 178.4 381.975 178.483 382.444 178.648C382.919 178.808 383.353 179.051 383.748 179.376L383.092 180.272C382.735 180.021 382.375 179.835 382.012 179.712C381.655 179.584 381.289 179.52 380.916 179.52C380.191 179.52 379.593 179.792 379.124 180.336C378.655 180.88 378.42 181.709 378.42 182.824C378.42 183.571 378.527 184.181 378.74 184.656C378.959 185.125 379.255 185.472 379.628 185.696C380.007 185.915 380.436 186.024 380.916 186.024ZM389.91 178.4C390.704 178.4 391.368 178.581 391.902 178.944C392.44 179.301 392.843 179.808 393.11 180.464C393.382 181.12 393.518 181.893 393.518 182.784C393.518 183.643 393.379 184.403 393.102 185.064C392.824 185.725 392.416 186.245 391.878 186.624C391.344 186.997 390.683 187.184 389.894 187.184C389.104 187.184 388.44 187.003 387.902 186.64C387.363 186.277 386.955 185.768 386.678 185.112C386.406 184.451 386.27 183.68 386.27 182.8C386.27 181.931 386.408 181.165 386.686 180.504C386.963 179.843 387.371 179.328 387.91 178.96C388.454 178.587 389.12 178.4 389.91 178.4ZM389.91 179.496C389.184 179.496 388.635 179.765 388.262 180.304C387.894 180.837 387.71 181.669 387.71 182.8C387.71 183.909 387.891 184.733 388.254 185.272C388.622 185.811 389.168 186.08 389.894 186.08C390.619 186.08 391.163 185.811 391.526 185.272C391.894 184.733 392.078 183.904 392.078 182.784C392.078 181.664 391.896 180.837 391.534 180.304C391.171 179.765 390.63 179.496 389.91 179.496ZM401.848 178.4C402.12 178.4 402.378 178.459 402.624 178.576C402.874 178.693 403.08 178.92 403.24 179.256C403.4 179.592 403.48 180.083 403.48 180.728V187H402.232V180.944C402.232 180.416 402.2 180.035 402.136 179.8C402.072 179.565 401.888 179.448 401.584 179.448C401.333 179.448 401.082 179.528 400.832 179.688C400.586 179.843 400.346 180.099 400.112 180.456V187H398.856V180.944C398.856 180.416 398.824 180.035 398.76 179.8C398.696 179.565 398.512 179.448 398.208 179.448C397.946 179.448 397.693 179.528 397.448 179.688C397.208 179.843 396.97 180.099 396.736 180.456V187H395.496V178.576H396.552L396.632 179.552C396.861 179.227 397.117 178.955 397.4 178.736C397.688 178.512 398.042 178.4 398.464 178.4C398.784 178.4 399.085 178.477 399.368 178.632C399.65 178.781 399.858 179.075 399.992 179.512C400.221 179.181 400.48 178.915 400.768 178.712C401.056 178.504 401.416 178.4 401.848 178.4ZM411.441 178.4C411.713 178.4 411.972 178.459 412.217 178.576C412.468 178.693 412.673 178.92 412.833 179.256C412.993 179.592 413.073 180.083 413.073 180.728V187H411.825V180.944C411.825 180.416 411.793 180.035 411.729 179.8C411.665 179.565 411.481 179.448 411.177 179.448C410.927 179.448 410.676 179.528 410.425 179.688C410.18 179.843 409.94 180.099 409.705 180.456V187H408.449V180.944C408.449 180.416 408.417 180.035 408.353 179.8C408.289 179.565 408.105 179.448 407.801 179.448C407.54 179.448 407.287 179.528 407.041 179.688C406.801 179.843 406.564 180.099 406.329 180.456V187H405.089V178.576H406.145L406.225 179.552C406.455 179.227 406.711 178.955 406.993 178.736C407.281 178.512 407.636 178.4 408.057 178.4C408.377 178.4 408.679 178.477 408.961 178.632C409.244 178.781 409.452 179.075 409.585 179.512C409.815 179.181 410.073 178.915 410.361 178.712C410.649 178.504 411.009 178.4 411.441 178.4ZM421.515 185.16C421.515 185.496 421.571 185.741 421.683 185.896C421.795 186.051 421.968 186.165 422.203 186.24L421.875 187.184C421.512 187.136 421.195 187.021 420.923 186.84C420.651 186.653 420.454 186.373 420.331 186C420.027 186.389 419.648 186.685 419.195 186.888C418.742 187.085 418.24 187.184 417.691 187.184C416.848 187.184 416.184 186.947 415.699 186.472C415.214 185.997 414.971 185.368 414.971 184.584C414.971 183.715 415.31 183.048 415.987 182.584C416.664 182.12 417.643 181.888 418.923 181.888H420.163V181.184C420.163 180.576 419.984 180.147 419.627 179.896C419.275 179.64 418.784 179.512 418.155 179.512C417.878 179.512 417.552 179.547 417.179 179.616C416.806 179.68 416.4 179.789 415.963 179.944L415.611 178.928C416.128 178.736 416.614 178.6 417.067 178.52C417.52 178.44 417.952 178.4 418.363 178.4C419.414 178.4 420.2 178.645 420.723 179.136C421.251 179.621 421.515 180.283 421.515 181.12V185.16ZM418.035 186.16C418.451 186.16 418.848 186.056 419.227 185.848C419.606 185.635 419.918 185.341 420.163 184.968V182.8H418.947C418.019 182.8 417.363 182.96 416.979 183.28C416.6 183.6 416.411 184.029 416.411 184.568C416.411 185.091 416.544 185.488 416.811 185.76C417.083 186.027 417.491 186.16 418.035 186.16ZM425.077 187V178.576H426.221L426.325 179.744C426.666 179.312 427.093 178.981 427.605 178.752C428.122 178.517 428.623 178.4 429.109 178.4C429.935 178.4 430.535 178.619 430.909 179.056C431.287 179.493 431.477 180.101 431.477 180.88V187H430.133V181.872C430.133 181.296 430.101 180.832 430.037 180.48C429.973 180.123 429.839 179.864 429.637 179.704C429.434 179.539 429.119 179.456 428.693 179.456C428.362 179.456 428.05 179.528 427.757 179.672C427.469 179.816 427.21 179.997 426.981 180.216C426.757 180.429 426.57 180.645 426.421 180.864V187H425.077ZM439.711 175.016L441.055 175.184V187H439.879L439.751 185.888C439.436 186.336 439.073 186.664 438.663 186.872C438.257 187.08 437.823 187.184 437.359 187.184C436.628 187.184 436.025 187 435.551 186.632C435.076 186.264 434.724 185.752 434.495 185.096C434.265 184.435 434.151 183.669 434.151 182.8C434.151 181.957 434.281 181.205 434.543 180.544C434.804 179.877 435.18 179.355 435.671 178.976C436.167 178.592 436.761 178.4 437.455 178.4C437.94 178.4 438.367 178.485 438.735 178.656C439.103 178.821 439.428 179.067 439.711 179.392V175.016ZM437.807 179.48C437.103 179.48 436.561 179.755 436.183 180.304C435.804 180.853 435.615 181.685 435.615 182.8C435.615 183.525 435.692 184.133 435.847 184.624C436.001 185.115 436.228 185.483 436.527 185.728C436.831 185.973 437.201 186.096 437.639 186.096C438.119 186.096 438.527 185.96 438.863 185.688C439.204 185.416 439.487 185.109 439.711 184.768V180.56C439.481 180.219 439.204 179.955 438.879 179.768C438.553 179.576 438.196 179.48 437.807 179.48ZM458.834 175.016C459.287 175.016 459.698 175.056 460.066 175.136C460.434 175.216 460.783 175.328 461.114 175.472L460.682 176.472C460.41 176.355 460.122 176.267 459.818 176.208C459.514 176.149 459.199 176.12 458.874 176.12C458.287 176.12 457.845 176.235 457.546 176.464C457.253 176.693 457.106 177.045 457.106 177.52V179.232H459.962L459.818 180.288H457.106V187H455.762V180.288H453.754V179.232H455.762V177.552C455.762 177.029 455.895 176.579 456.162 176.2C456.434 175.821 456.802 175.531 457.266 175.328C457.73 175.12 458.253 175.016 458.834 175.016ZM463.532 187V185.968H464.844V179.608H463.532V178.576H465.868L466.116 180.568C466.441 179.875 466.836 179.339 467.3 178.96C467.764 178.581 468.377 178.392 469.14 178.392C469.374 178.392 469.582 178.411 469.764 178.448C469.95 178.48 470.14 178.523 470.332 178.576L469.94 179.776C469.764 179.728 469.604 179.693 469.46 179.672C469.316 179.645 469.15 179.632 468.964 179.632C468.318 179.632 467.764 179.861 467.3 180.32C466.836 180.779 466.465 181.472 466.188 182.4V185.968H467.9V187H463.532ZM469.036 181.424V179.592L469.172 178.576H470.332L470.14 181.424H469.036ZM479.078 185.16C479.078 185.496 479.134 185.741 479.246 185.896C479.358 186.051 479.531 186.165 479.766 186.24L479.438 187.184C479.075 187.136 478.758 187.021 478.486 186.84C478.214 186.653 478.016 186.373 477.894 186C477.59 186.389 477.211 186.685 476.758 186.888C476.304 187.085 475.803 187.184 475.254 187.184C474.411 187.184 473.747 186.947 473.262 186.472C472.776 185.997 472.534 185.368 472.534 184.584C472.534 183.715 472.872 183.048 473.549 182.584C474.227 182.12 475.206 181.888 476.486 181.888H477.726V181.184C477.726 180.576 477.547 180.147 477.19 179.896C476.838 179.64 476.347 179.512 475.718 179.512C475.44 179.512 475.115 179.547 474.742 179.616C474.368 179.68 473.963 179.789 473.526 179.944L473.174 178.928C473.691 178.736 474.176 178.6 474.63 178.52C475.083 178.44 475.515 178.4 475.926 178.4C476.976 178.4 477.763 178.645 478.286 179.136C478.814 179.621 479.078 180.283 479.078 181.12V185.16ZM475.598 186.16C476.014 186.16 476.411 186.056 476.79 185.848C477.168 185.635 477.48 185.341 477.726 184.968V182.8H476.51C475.582 182.8 474.926 182.96 474.542 183.28C474.163 183.6 473.974 184.029 473.974 184.568C473.974 185.091 474.107 185.488 474.374 185.76C474.646 186.027 475.054 186.16 475.598 186.16ZM488.191 178.4C488.463 178.4 488.722 178.459 488.967 178.576C489.218 178.693 489.423 178.92 489.583 179.256C489.743 179.592 489.823 180.083 489.823 180.728V187H488.575V180.944C488.575 180.416 488.543 180.035 488.479 179.8C488.415 179.565 488.231 179.448 487.927 179.448C487.677 179.448 487.426 179.528 487.175 179.688C486.93 179.843 486.69 180.099 486.455 180.456V187H485.199V180.944C485.199 180.416 485.167 180.035 485.103 179.8C485.039 179.565 484.855 179.448 484.551 179.448C484.29 179.448 484.037 179.528 483.791 179.688C483.551 179.843 483.314 180.099 483.079 180.456V187H481.839V178.576H482.895L482.975 179.552C483.205 179.227 483.461 178.955 483.743 178.736C484.031 178.512 484.386 178.4 484.807 178.4C485.127 178.4 485.429 178.477 485.711 178.632C485.994 178.781 486.202 179.075 486.335 179.512C486.565 179.181 486.823 178.915 487.111 178.712C487.399 178.504 487.759 178.4 488.191 178.4ZM493.289 183.264C493.316 183.915 493.441 184.448 493.665 184.864C493.889 185.275 494.185 185.579 494.553 185.776C494.921 185.968 495.321 186.064 495.753 186.064C496.185 186.064 496.574 186 496.921 185.872C497.273 185.744 497.633 185.555 498.001 185.304L498.633 186.192C498.238 186.501 497.788 186.744 497.281 186.92C496.78 187.096 496.265 187.184 495.737 187.184C494.921 187.184 494.225 187 493.649 186.632C493.073 186.264 492.633 185.752 492.329 185.096C492.03 184.435 491.881 183.669 491.881 182.8C491.881 181.947 492.033 181.189 492.337 180.528C492.641 179.867 493.068 179.347 493.617 178.968C494.166 178.589 494.814 178.4 495.561 178.4C496.27 178.4 496.881 178.568 497.393 178.904C497.905 179.235 498.297 179.709 498.569 180.328C498.846 180.941 498.985 181.675 498.985 182.528C498.985 182.672 498.982 182.808 498.977 182.936C498.972 183.059 498.964 183.168 498.953 183.264H493.289ZM495.577 179.504C494.953 179.504 494.43 179.725 494.009 180.168C493.593 180.611 493.356 181.296 493.297 182.224H497.689C497.673 181.323 497.476 180.645 497.097 180.192C496.718 179.733 496.212 179.504 495.577 179.504ZM508.067 187H506.163L505.075 180.816L503.891 187H502.035L500.499 178.576H501.875L502.947 186.168L504.291 179.648H505.883L507.155 186.168L508.227 178.576H509.539L508.067 187ZM514.629 178.4C515.423 178.4 516.087 178.581 516.621 178.944C517.159 179.301 517.562 179.808 517.829 180.464C518.101 181.12 518.237 181.893 518.237 182.784C518.237 183.643 518.098 184.403 517.821 185.064C517.543 185.725 517.135 186.245 516.597 186.624C516.063 186.997 515.402 187.184 514.613 187.184C513.823 187.184 513.159 187.003 512.621 186.64C512.082 186.277 511.674 185.768 511.397 185.112C511.125 184.451 510.988 183.68 510.988 182.8C510.988 181.931 511.127 181.165 511.405 180.504C511.682 179.843 512.09 179.328 512.629 178.96C513.173 178.587 513.839 178.4 514.629 178.4ZM514.629 179.496C513.903 179.496 513.354 179.765 512.981 180.304C512.613 180.837 512.429 181.669 512.429 182.8C512.429 183.909 512.61 184.733 512.973 185.272C513.341 185.811 513.887 186.08 514.613 186.08C515.338 186.08 515.882 185.811 516.245 185.272C516.613 184.733 516.797 183.904 516.797 182.784C516.797 181.664 516.615 180.837 516.253 180.304C515.89 179.765 515.349 179.496 514.629 179.496ZM521.094 187V185.968H522.406V179.608H521.094V178.576H523.43L523.678 180.568C524.004 179.875 524.398 179.339 524.862 178.96C525.326 178.581 525.94 178.392 526.702 178.392C526.937 178.392 527.145 178.411 527.326 178.448C527.513 178.48 527.702 178.523 527.894 178.576L527.502 179.776C527.326 179.728 527.166 179.693 527.022 179.672C526.878 179.645 526.713 179.632 526.526 179.632C525.881 179.632 525.326 179.861 524.862 180.32C524.398 180.779 524.028 181.472 523.75 182.4V185.968H525.462V187H521.094ZM526.598 181.424V179.592L526.734 178.576H527.894L527.702 181.424H526.598ZM537.664 178.576L533.872 182.368L538.104 187H536.336L532.192 182.4L535.92 178.576H537.664ZM532.04 175.016V187H530.696V175.184L532.04 175.016Z" fill="black"/>
<path d="M245.686 135.752L233.83 130.328L274.198 46.568L285.958 51.992L245.686 135.752Z" fill="#EC9D04"/>
<path d="M310.544 74.024V108.92C310.544 111.384 310.992 113.08 311.888 114.008C312.816 114.936 314.096 115.4 315.728 115.4C317.296 115.4 318.864 114.904 320.432 113.912C322 112.92 323.312 111.576 324.368 109.88V74.024H339.536V125H326.288L325.616 119.048C323.888 121.544 321.616 123.432 318.8 124.712C315.984 125.992 313.04 126.632 309.968 126.632C305.04 126.632 301.376 125.208 298.976 122.36C296.576 119.48 295.376 115.624 295.376 110.792V74.024H310.544ZM368.107 79.256C369.707 77.144 371.627 75.464 373.867 74.216C376.139 72.968 378.571 72.344 381.163 72.344C385.547 72.344 389.115 73.448 391.867 75.656C394.651 77.864 396.699 80.984 398.011 85.016C399.323 89.048 399.979 93.832 399.979 99.368C399.979 104.616 399.195 109.304 397.627 113.432C396.091 117.528 393.803 120.76 390.763 123.128C387.723 125.464 383.995 126.632 379.579 126.632C374.235 126.632 370.027 124.552 366.955 120.392L366.379 125H352.939V53.768L368.107 52.184V79.256ZM375.595 115.592C378.283 115.592 380.411 114.36 381.979 111.896C383.547 109.4 384.331 105.288 384.331 99.56C384.331 95.336 383.995 92.072 383.323 89.768C382.683 87.432 381.755 85.816 380.539 84.92C379.355 83.992 377.963 83.528 376.363 83.528C374.667 83.528 373.147 84.056 371.803 85.112C370.459 86.168 369.227 87.608 368.107 89.432V110.936C369.067 112.44 370.139 113.592 371.323 114.392C372.507 115.192 373.931 115.592 375.595 115.592ZM425.669 74.024V108.92C425.669 111.384 426.117 113.08 427.013 114.008C427.941 114.936 429.221 115.4 430.853 115.4C432.421 115.4 433.989 114.904 435.557 113.912C437.125 112.92 438.437 111.576 439.493 109.88V74.024H454.661V125H441.413L440.741 119.048C439.013 121.544 436.741 123.432 433.925 124.712C431.109 125.992 428.165 126.632 425.093 126.632C420.165 126.632 416.501 125.208 414.101 122.36C411.701 119.48 410.501 115.624 410.501 110.792V74.024H425.669ZM488.512 115.784C491.04 115.784 493.072 115.384 494.608 114.584C496.176 113.784 496.96 112.584 496.96 110.984C496.96 109.896 496.656 108.984 496.048 108.248C495.44 107.512 494.272 106.808 492.544 106.136C490.816 105.464 488.256 104.664 484.864 103.736C481.76 102.904 479.008 101.848 476.608 100.568C474.24 99.288 472.384 97.64 471.04 95.624C469.728 93.608 469.072 91.096 469.072 88.088C469.072 85.048 469.92 82.344 471.616 79.976C473.312 77.608 475.808 75.752 479.104 74.408C482.4 73.032 486.432 72.344 491.2 72.344C495.744 72.344 499.696 72.936 503.056 74.12C506.448 75.272 509.376 76.744 511.84 78.536L505.792 87.464C503.68 86.152 501.408 85.112 498.976 84.344C496.544 83.544 494.096 83.144 491.632 83.144C489.168 83.144 487.328 83.48 486.112 84.152C484.928 84.792 484.336 85.768 484.336 87.08C484.336 87.944 484.64 88.696 485.248 89.336C485.888 89.944 487.072 90.584 488.8 91.256C490.528 91.896 493.056 92.696 496.384 93.656C499.68 94.584 502.544 95.656 504.976 96.872C507.44 98.088 509.344 99.72 510.688 101.768C512.032 103.784 512.704 106.456 512.704 109.784C512.704 113.496 511.6 116.616 509.392 119.144C507.184 121.64 504.256 123.512 500.608 124.76C496.96 126.008 492.96 126.632 488.608 126.632C483.68 126.632 479.328 125.928 475.552 124.52C471.776 123.112 468.56 121.256 465.904 118.952L473.536 110.408C475.52 111.944 477.76 113.224 480.256 114.248C482.784 115.272 485.536 115.784 488.512 115.784Z" fill="black"/>
</svg>
